<?xml version="1.0" encoding="UTF-8"?>
<svg id="Layer_1" data-name="Layer 1" xmlns="http://www.w3.org/2000/svg" viewBox="0 0 170.08 175.5">
  <defs>
    <style>
      .cls-1 {
        fill: #fff;
      }

      .cls-2 {
        fill: #1db575;
      }

      .cls-3 {
        fill: none;
        stroke: #454546;
        stroke-dasharray: 5.47;
        stroke-miterlimit: 10;
        stroke-width: 3.28px;
      }
    </style>
  </defs>
  <path class="cls-3" d="M130.28,43.61l-43.67-.33s-23.75-5.69-24.19,19.04c-.44,24.74,29.44,21.34,29.44,21.34,0,0,18.83,5.69,17.51,19.59-4.38,15.21-9.19,15.87-25.28,16.75l-61.07-.99"/>
  <g>
    <path class="cls-2" d="M138.6,19.42c-4.6-4.6-11.93-4.6-16.53,0-4.6,4.6-4.6,11.93,0,16.53l8.21,8.21,8.32-8.21c4.6-4.49,4.6-11.93,0-16.53ZM130.28,35.95c-4.6,0-8.21-3.72-8.21-8.21s3.72-8.21,8.21-8.21,8.21,3.72,8.21,8.21c.11,4.49-3.61,8.21-8.21,8.21Z"/>
    <circle class="cls-1" cx="130.39" cy="27.52" r="8.32"/>
    <g>
      <path class="cls-2" d="M132.04,27.41l-.88.22-.99-1.86h-5.8c-.33.55-.55,1.2-.88,1.75-.11,0-.88-.22-1.09-.22v.66c.22.11.55.22.77.22-.22.33-.33.66-.55.88,0,1.2.11,2.41.11,3.72h.99v-.88h6.9v.88h1.09l.22-3.5-.77-.99.77-.22v-.66s.11,0,.11,0ZM124.15,27.63l.77-1.42h4.93l.77,1.42v.44h-6.35l-.11-.44h0ZM124.37,30.37c-.33,0-.55-.22-.55-.55s.22-.55.55-.55.55.22.55.55c0,.22-.22.55-.55.55ZM130.17,30.37c-.33,0-.55-.22-.55-.55s.22-.55.55-.55.55.22.55.55c.11.33-.22.55-.55.55Z"/>
      <path class="cls-2" d="M137.51,23.36h-.22s-1.64.66-2.96,0c-1.2-.55-2.41-.33-3.06-.11v-.11c0-.11-.11-.22-.22-.22s-.22.11-.22.22v7.33c0,.11.11.22.22.22s.22-.11.22-.22v-2.74c.44-.11,1.75-.44,2.85,0,.55.22,1.09.33,1.53.33.99,0,1.75-.33,1.75-.33.11,0,.11-.11.11-.22v-3.94c.11-.11.11-.22,0-.22Z"/>
    </g>
  </g>
  <path class="cls-2" d="M122.08,83.56c-21.12,0-38.09,16.96-38.09,38.09s16.96,38.09,38.09,38.09,38.09-16.96,38.09-38.09c0-21.12-16.97-38.09-38.09-38.09h0ZM142.87,123.4c0,1.09-.66,1.75-1.75,1.75h-14.67c-.55,0-.88.33-.88.88v14.67c0,1.09-.66,1.75-1.75,1.75h-3.5c-1.09,0-1.75-.66-1.75-1.75v-14.67c0-.55-.33-.88-.88-.88h-14.78c-1.09,0-1.75-.66-1.75-1.75v-3.5c0-1.09.66-1.75,1.75-1.75h14.78c.55,0,.88-.33.88-.88v-14.67c0-1.09.66-1.75,1.75-1.75h3.5c1.09,0,1.75.66,1.75,1.75v14.78c0,.55.33.88.88.88h14.67c1.09,0,1.75.66,1.75,1.75v3.39Z"/>
  <g>
    <path class="cls-2" d="M29.48,95.6c-4.49-4.49-11.71-4.49-16.2,0s-4.49,11.71,0,16.2l8.1,8.1,8.1-8.1c4.49-4.38,4.49-11.71,0-16.2ZM21.38,111.8c-4.49,0-8.1-3.61-8.1-8.1s3.61-8.1,8.1-8.1,8.1,3.61,8.1,8.1-3.61,8.1-8.1,8.1Z"/>
    <g>
      <circle class="cls-1" cx="21.49" cy="103.59" r="8.21"/>
      <path class="cls-2" d="M27.84,100.53l-1.2.22-1.31-2.41h-7.77c-.44.77-.77,1.53-1.2,2.41-.22,0-1.2-.33-1.42-.33v.88c.33.11.77.22,1.09.33-.22.44-.44.77-.77,1.2.11,1.64.11,3.28.22,4.93h1.31v-1.2h9.19v1.2h1.42l.33-4.71-.99-1.31.99-.33v-.88s.11,0,.11,0ZM17.22,100.75l.99-1.97h6.57l.99,1.97v.66h-8.43v-.66h-.11ZM17.55,104.36c-.44,0-.77-.33-.77-.77s.33-.77.77-.77.77.33.77.77c.11.44-.33.77-.77.77ZM25.32,104.47c-.44,0-.77-.33-.77-.77s.33-.77.77-.77.77.33.77.77-.33.77-.77.77Z"/>
    </g>
  </g>
</svg>