<?xml version="1.0" encoding="UTF-8"?>
<svg id="Layer_1" data-name="Layer 1" xmlns="http://www.w3.org/2000/svg" viewBox="0 0 170.08 175.5">
  <defs>
    <style>
      .cls-1 {
        fill: none;
      }

      .cls-2 {
        fill: #d66927;
      }

      .cls-3 {
        fill: #171717;
      }

      .cls-4 {
        fill: #e8a375;
      }

      .cls-5 {
        fill: #9b603b;
      }

      .cls-6 {
        fill: #ebcf97;
      }

      .cls-7 {
        fill: #4e4e50;
      }

      .cls-8 {
        fill: #f9cb17;
      }

      .cls-9 {
        fill: #cbb485;
      }

      .cls-10 {
        fill: #1db575;
      }

      .cls-11 {
        fill: #e2b05a;
      }

      .cls-12 {
        fill: #fbed99;
      }

      .cls-13 {
        fill: #333;
      }

      .cls-14 {
        fill: #fcf0e5;
      }

      .cls-15 {
        fill: #f0efef;
      }

      .cls-16 {
        fill: #fff;
        isolation: isolate;
        opacity: .11;
      }
    </style>
  </defs>
  <path class="cls-3" d="M97.8,43.83h-41.09c-3.25,0-5.87,2.62-5.87,5.87v13.61h-.12c-.12,0-.12.12-.12.37v6.12c0,.12.12.12.12.37h.12v2.25h-.12c-.12,0-.12.12-.12.37v6.37c0,.12.12.12.12.37h.12v67.95c0,3.25,2.62,5.87,5.87,5.87h41.09c3.25,0,5.87-2.62,5.87-5.87V49.7c0-3.25-2.62-5.87-5.87-5.87Z"/>
  <path class="cls-15" d="M52.96,144.25c0,1.12.75,2,2,2h44.46c1.12,0,2-1,2-2V55.32h-48.46v88.93Z"/>
  <path class="cls-13" d="M99.42,49.45h-44.34c-1.12,0-2,1-2,2v6h48.34v-6c.12-1.12-.87-2-2-2Z"/>
  <path class="cls-1" d="M44.09,118.52c-.12-.5-.5-1.25-.62-2.12.12.87.5,1.5.62,2.12Z"/>
  <path class="cls-4" d="M44.97,142.5c-.75,1.5-1,3.12-.62,4.5,1.12,3.12,2.75,6.12,5,5.87,2.25-.37,2.37-1.12,2.75-2,.37-.75-1.5-5.62-1.5-5.62v-1.5c-1.25-.37-2.87-.75-4.75-1.25-.12-.12-.37-.12-.87,0Z"/>
  <path class="cls-4" d="M50.71,89.29s-1,.12-2.75.62-7.24,1.5-7.24,3.25.75,7.12,8.74,6.74l1.25-.37v-10.24Z"/>
  <path class="cls-4" d="M43.47,116.4c.37,1,.5,1.62.62,2.12.62,1.62,1.75,3.5,3.5,3.37,1,0,2.12-.37,3.12-.62v-.5c1.25-1,2.12-2.62,2.25-4.25-.37-2.62-1-5.12-2-7.62-.12-1-.37-2-.5-2.87v-2.12c-1.12-.37-2.25-.62-3.37-1.12-.37-.12-.62-.12-1-.12-2.37,2.25-5,5.37-4.5,7.74.5,2,1.12,4,1.62,5.62h0l.25.37Z"/>
  <path class="cls-4" d="M46.84,124.27c-1.62.5-3.25,1.5-4.5,2.62,0,.62,0,1.5.12,2.12,1,3.5,2.75,10.49,4.37,10.62h0c1.25.37,2.75.12,4-.37h0c1.75-1.25,2.62-3.5,2.12-5.62-.75-3.75-2-6-2.12-6.74v-2.12c-1.25-.87-2.5-.87-4-.5Z"/>
  <path class="cls-4" d="M47.34,103.03c1.12.5,2.25.75,3.37,1.12v-4.37l-1.25.37h0c-1.12.75-2.25,1.75-3.25,2.75.5,0,.75.12,1.12.12Z"/>
  <path class="cls-4" d="M47.84,122.14c-1.75.12-2.87-1.75-3.5-3.37l.12.5c-1.12,2.37-1.75,5-2.12,7.62,1.25-1.12,2.87-2.12,4.75-2.62,1.25-.37,2.62-.12,3.87.37v-3.12c-1,.25-2.12.37-3.12.62Z"/>
  <path class="cls-4" d="M41.09,128.14c-.12.12-.12.5-.37.62,0,.25.12,0,.37-.62Z"/>
  <path class="cls-4" d="M46.72,139.38c-.62,1-1.25,2-1.75,2.87.37-.12.75-.12,1.12,0,1.62.5,3.37,1,4.75,1.25v-4.5c-1.37.62-2.62.75-4.12.37Z"/>
  <path class="cls-14" d="M45.72,120.64s-3.37-6.12-1.12-9.37,5.87,5,5.87,5.5c-.12.37-.5.62-.75.62-.87,0-4.12,2.12-4,3.25Z"/>
  <path class="cls-14" d="M45.84,128.26c-1.25.62-2,2.12-1.62,3.5.5,2.25,1.62,5.62,1.62,5.62,0,0,0,.62,1-.5.75-.75,1.75-1.5,2.75-1.75.5-.12,1.5,0,1-2-.5-1.75-2.12-5.87-4.75-4.87Z"/>
  <path class="cls-14" d="M45.59,146.25c.37-.62,1.12-1,1.75-1.12,1.12,0,2.37,4.25,2.37,4.25,0,0-.75.5-1.5,1-.62.5-1,1.5-1.25,1.25-1.12-1.5-1.5-3.5-1.37-5.37Z"/>
  <path class="cls-14" d="M45.72,90.54s-5.12.75-4.87,3.87c0,0-1.5-1.12.5-2.75,1.62-1,3.37-1.62,5.37-1.5l-1,.37Z"/>
  <path class="cls-4" d="M78.06,166.11c.5-6.49,5.5-13.11,11.62-9.12,6.12,4,5.12,3.75,6.99,1.5,1.75-2.25,5.37-5.62,6.12-8.62h0c-1,1.75-2.87,2.87-5,2.87h-31.22c1.75,4.75,8.62,21.36,15.99,21.98h2c-3.12-1.87-6.74-4.87-6.49-8.62Z"/>
  <path class="cls-4" d="M106.92,90.79c.37,3.12,2,10.37,5.37,7.49-.62-2.37-.75-5-.75-7.62,0-1.62-1-3.12-2.37-3.75-1.5.75-2.25,2.25-2.25,3.87Z"/>
  <path class="cls-4" d="M122.9,163.98c-.5-1.12-1-2.37-1.25-3.75-.12-.62-.37-1.25-.37-2-1.62-8.62-2.12-17.49-3.12-26.23-.5-5.37-1.25-10.49-1.62-15.86,0-3.12-.37-6.37-1-9.37-.75-3.12-2.75-5.62-3.5-8.74-3.37,2.87-5-4.5-5.37-7.49-.12-1.62.62-3.12,2.12-3.87-1-.37-2-.5-3.12-.12-5.5,1-3.75,15.24-3.25,18.73.37,2.62.62,5.12.75,7.74,0,.37.12,3.37.12,7.62v26.23c0,1-.37,2-.75,2.87h0c-.75,2.87-4.37,6.37-6.12,8.62s-1,2.62-6.99-1.5c-6-4-11.12,2.62-11.62,9.12-.37,3.75,3.37,6.74,6.49,8.74h45.46c-2.62-3.25-5.12-6.87-6.87-10.74Z"/>
  <path class="cls-10" d="M93.43,81.3c0,3.87-3.25,7.12-7.12,7.12s-7.12-3.25-7.12-7.12,3.25-7.12,7.12-7.12h0c3.87,0,7.12,3.25,7.12,7.12h0Z"/>
  <path class="cls-12" d="M86.31,74.56c-3.75,0-6.74,3.12-6.74,6.74s3.12,6.74,6.74,6.74,6.74-3.12,6.74-6.74h0c.12-3.62-3-6.74-6.74-6.74ZM86.31,87.8c-3.5,0-6.49-2.87-6.49-6.49s2.87-6.49,6.49-6.49,6.49,2.87,6.49,6.49-2.87,6.49-6.49,6.49Z"/>
  <path class="cls-16" d="M80.06,77.93c-2,3.37-.62,7.74,2.75,9.74,2.62,1.5,6,1.12,8.24-1l-10.99-8.74Z"/>
  <path class="cls-11" d="M91.18,81.3c0,2.75-2.12,4.87-4.87,4.87s-4.87-2.12-4.87-4.87,2.12-4.87,4.87-4.87c2.75.12,4.87,2.37,4.87,4.87Z"/>
  <path class="cls-8" d="M91.05,81.3c0,2.62-2.12,4.5-4.5,4.5-2.62,0-4.5-2.12-4.5-4.5,0-2.62,2.12-4.5,4.5-4.5s4.5,2,4.5,4.5h0Z"/>
  <path class="cls-10" d="M77.32,68.44c0,3.87-3.25,7.12-7.12,7.12s-7.12-3.25-7.12-7.12,3.25-7.12,7.12-7.12h0c3.87,0,7.12,3.25,7.12,7.12h0Z"/>
  <path class="cls-12" d="M70.2,61.57c-3.75,0-6.74,3.12-6.74,6.74s3.12,6.74,6.74,6.74,6.74-3.12,6.74-6.74-3.12-6.74-6.74-6.74h0ZM70.2,74.93c-3.5,0-6.49-2.87-6.49-6.49s2.87-6.49,6.49-6.49,6.49,2.87,6.49,6.49c-.12,3.5-3,6.49-6.49,6.49Z"/>
  <path class="cls-16" d="M63.83,65.06c-2,3.37-.62,7.74,2.75,9.74,2.62,1.5,6,1.12,8.24-1l-10.99-8.74Z"/>
  <path class="cls-11" d="M75.07,68.44c0,2.75-2.12,4.87-4.87,4.87s-4.87-2.12-4.87-4.87,2.12-4.87,4.87-4.87,4.87,2.25,4.87,4.87Z"/>
  <path class="cls-8" d="M74.82,68.44c0,2.62-2.12,4.5-4.5,4.5-2.62,0-4.5-2.12-4.5-4.5,0-2.62,2.12-4.5,4.5-4.5h0c2.62,0,4.5,1.87,4.5,4.5Z"/>
  <path class="cls-10" d="M79.44,28.47c0,5.5-4.37,9.87-9.87,9.87s-9.87-4.37-9.87-9.87,4.25-9.87,9.87-9.87,9.87,4.37,9.87,9.87h0Z"/>
  <path class="cls-12" d="M69.57,19.1c-5.12,0-9.37,4.25-9.37,9.37s4.25,9.37,9.37,9.37,9.37-4.25,9.37-9.37h0c-.25-5.25-4.25-9.37-9.37-9.37ZM69.57,37.34c-5,0-9.12-4-9.12-9.12s4-9.12,9.12-9.12,9.12,4,9.12,9.12h0c-.25,5.12-4.12,9.12-9.12,9.12Z"/>
  <path class="cls-16" d="M60.83,23.6c-2.62,4.87-.75,10.87,3.87,13.36,1.5.75,3.12,1.12,4.75,1.12,2.37,0,4.87-1,6.62-2.62l-15.24-11.87Z"/>
  <circle class="cls-11" cx="69.57" cy="28.47" r="6.74"/>
  <path class="cls-8" d="M75.94,28.47c0,3.5-2.87,6.37-6.37,6.37s-6.37-2.87-6.37-6.37,2.87-6.37,6.37-6.37,6.37,2.75,6.37,6.37h0Z"/>
  <path class="cls-10" d="M98.3,10.98c0,5.5-4.37,9.87-9.87,9.87s-9.87-4.37-9.87-9.87,4.37-9.87,9.87-9.87h0c5.5,0,9.87,4.37,9.87,9.87Z"/>
  <path class="cls-12" d="M88.43,1.62c-5.12,0-9.37,4.25-9.37,9.37s4.25,9.37,9.37,9.37,9.37-4.25,9.37-9.37-4.25-9.37-9.37-9.37h0ZM88.43,20.1c-5,0-9.12-4-8.87-9.12,0-5,4-9.12,9.12-8.87,5,0,8.87,4,9.12,9.12-.25,4.75-4.37,8.87-9.37,8.87h0Z"/>
  <path class="cls-16" d="M79.81,6.24c-2.62,4.75-.75,10.87,3.87,13.36,3.75,2,8.24,1.5,11.37-1.25l-15.24-12.12Z"/>
  <circle class="cls-11" cx="88.43" cy="10.98" r="6.74"/>
  <path class="cls-8" d="M95.05,10.98c0,3.5-2.75,6.37-6.37,6.37s-6.37-2.75-6.37-6.37,2.75-6.37,6.37-6.37h0c3.5,0,6.37,2.87,6.37,6.37Z"/>
  <path class="cls-9" d="M86.18,99.66h-17.99c-1.75,0-3.12,1.5-3.12,3.12h0c0,1.25.62,2.62,1.75,3.25l2.87,1.75h14.99l2.87-1.75c1.12-.62,1.75-2,1.75-3.25.12-1.87-1.37-3.12-3.12-3.12h0Z"/>
  <path class="cls-9" d="M80.81,98.04c0,1.25-1.12,2.37-2.37,2.37s-2.37-1.12-2.37-2.37,1.12-2.37,2.37-2.37h0c1.25-.12,2.37,1,2.37,2.37Z"/>
  <path class="cls-5" d="M85.06,110.78c2-1.12,2.37-4.75,2.37-4.87v-1.12c-.12-1.75-1.75-3.12-3.5-2.87h-13.24c-1.75,0-3.25,1.25-3.37,3.12-.5,2.62-1.25,2.37-2.75,4.37l.75,1.5c-.12-.12,17.74,1,19.73-.12Z"/>
  <path class="cls-7" d="M79.06,110.28c-5,0-11.49-.37-13.24-.5l-.37-.5.75-.75c1-1,1.62-2.12,1.75-3.5.12-1.25,1.12-2.12,2.37-2.12h13.24c1.25,0,2.62.75,2.62,2v1.12c-.12,1.5-.75,2.87-2,4-1.62.25-3.37.5-5.12.25h0Z"/>
  <path class="cls-10" d="M89.56,110.65c-1.12-1.25-1.75-2.87-2.12-4.5,0,0-.5,3.75-2.37,4.87s-19.86,0-19.86,0l-.75-1.5q-.12.12-.12.37h0c-1.25,2-1.62,4.37-.75,6.62h0c1,2.37,3.12,4,5.5,4.5l.75.12c5,.75,10.24.75,15.24,0l.75-.12,1.75,4.5c3-4.75,4.25-11.62,2-14.86Z"/>
  <path class="cls-10" d="M82.19,95.91c0,3.87-3.25,7.12-7.12,7.12s-7.12-3.25-7.12-7.12,3.25-7.12,7.12-7.12h0c3.87,0,7.12,3.25,7.12,7.12h0Z"/>
  <path class="cls-12" d="M75.07,89.17c-3.75,0-6.74,3.12-6.74,6.74s3.12,6.74,6.74,6.74,6.74-3.12,6.74-6.74-3.12-6.74-6.74-6.74h0ZM75.07,102.41c-3.5,0-6.49-2.87-6.49-6.49s2.87-6.49,6.49-6.49,6.49,2.87,6.49,6.49-3,6.49-6.49,6.49Z"/>
  <path class="cls-16" d="M68.7,92.54c-2,3.37-.62,7.74,2.75,9.74,2.62,1.5,6,1.12,8.24-1l-10.99-8.74Z"/>
  <path class="cls-11" d="M79.81,95.91c0,2.75-2.12,4.87-4.87,4.87s-4.87-2.12-4.87-4.87,2.12-4.87,4.87-4.87,4.87,2.25,4.87,4.87Z"/>
  <path class="cls-8" d="M79.69,95.91c0,2.62-2.12,4.5-4.5,4.5-2.62,0-4.5-2.12-4.5-4.5,0-2.62,2.12-4.5,4.5-4.5s4.5,1.87,4.5,4.5h0Z"/>
  <path class="cls-2" d="M88.43,117.9h-.5c-.12-.5-.5-.75-.62-1.25h0c-1.62-2.25-2.62-4.87-3.12-7.62-.37-1.75-1.75-2.87-3.5-2.87h-13.24c-1.75,0-3.25,1.25-3.5,2.87-.5,2.75-1.5,5.37-3.12,7.62h0c-.37.5-.5.75-.62,1.25h-.5v3.87h0c0,.75.12,1.62.5,2.37h0c1,2.37,3.12,4,5.5,4.5l.75.12c5,.75,10.24.75,15.24,0l.75-.12c2.62-.37,4.75-2.12,5.5-4.5h0c.37-.75.5-1.62.5-2.37h0v-3.87Z"/>
  <path class="cls-6" d="M82.94,104.03h-17.99c-1.75,0-3.12,1.5-3.12,3.12,0,1.25.62,2.62,1.75,3.25l2.75,1.75h14.99l2.87-1.75c1.12-.62,1.75-2,1.75-3.25.12-1.87-1.25-3.12-3-3.12Z"/>
  <path class="cls-10" d="M80.56,106.28h-13.36c-1.75,0-3.25,1.25-3.5,2.87-.5,2.75-1.5,2.37-3.12,4.75h0c-1.25,2-1.62,4.5-.75,6.62h0c1,2.37,3.12,4,5.5,4.5l.75.12c5,.75,10.24.75,15.24,0l.75-.12c2.62-.37,4.75-2.12,5.5-4.5h0c.75-2.25.62-4.75-.75-6.62h0c-1.62-2.25-2.62-2-3.12-4.75,0-1.62-1.37-2.87-3.12-2.87Z"/>
  <circle class="cls-6" cx="72.57" cy="102.41" r="2.37"/>
</svg>