<?xml version="1.0" encoding="UTF-8"?>
<svg id="Layer_1" data-name="Layer 1" xmlns="http://www.w3.org/2000/svg" xmlns:xlink="http://www.w3.org/1999/xlink" viewBox="0 0 170.08 175.5">
  <defs>
    <style>
      .cls-1, .cls-2, .cls-3 {
        fill: none;
      }

      .cls-2 {
        stroke: #454546;
      }

      .cls-2, .cls-3 {
        stroke-miterlimit: 10;
        stroke-width: 1.9px;
      }

      .cls-3 {
        stroke: #1db575;
      }

      .cls-4 {
        clip-path: url(#clippath-1);
      }

      .cls-5 {
        clip-path: url(#clippath-2);
      }

      .cls-6 {
        fill: #1db575;
      }

      .cls-7 {
        fill: #333;
      }

      .cls-8 {
        clip-path: url(#clippath);
      }
    </style>
    <clipPath id="clippath">
      <circle class="cls-1" cx="55.98" cy="40.25" r="13.96"/>
    </clipPath>
    <clipPath id="clippath-1">
      <circle class="cls-1" cx="55.98" cy="85.07" r="13.96"/>
    </clipPath>
    <clipPath id="clippath-2">
      <circle class="cls-1" cx="55.31" cy="130.57" r="13.96" transform="translate(-77.02 181.5) rotate(-88.09)"/>
    </clipPath>
  </defs>
  <g>
    <path class="cls-6" d="M15.71,83.65h10.83c.95,0,1.99-.85,1.99-1.99v-7.5l-1.99,1.99v5.51h-10.83v-10.83h8.74l1.52-1.52c.09-.09.28-.28.38-.38h-10.64c-.95,0-1.99.85-1.99,1.99v10.73c.19.95.95,1.99,1.99,1.99Z"/>
    <path class="cls-6" d="M29.1,69.97c-.28-.28-.66-.38-1.14-.57h-.09c-.38,0-.85.09-1.23.57l-5.22,5.22c-.09-.09-1.23-1.23-1.23-1.23-.28-.28-.66-.57-1.23-.57-.38,0-.85.09-1.23.57-.66.66-.66,1.71,0,2.37l1.23,1.23,1.23,1.23c.28.28.66.57,1.23.57s.85-.09,1.23-.57l6.46-6.46c.57-.66.66-1.71,0-2.37Z"/>
  </g>
  <g>
    <path class="cls-6" d="M15.14,124.01h10.83c.95,0,1.99-.85,1.99-1.99v-7.5l-1.99,1.99v5.51h-10.83v-10.73h8.74l1.52-1.52c.09-.09.28-.28.38-.38h-10.64c-.95,0-1.99.85-1.99,1.99v10.83c.19,1.04,1.04,1.8,1.99,1.8Z"/>
    <path class="cls-6" d="M28.53,110.43c-.28-.28-.66-.38-1.14-.57h-.09c-.38,0-.85.09-1.23.57l-5.32,5.32c-.09-.09-1.23-1.23-1.23-1.23-.28-.28-.66-.57-1.23-.57-.38,0-.85.09-1.23.57-.66.66-.66,1.71,0,2.37l1.23,1.23,1.23,1.23c.28.28.66.57,1.23.57s.85-.09,1.23-.57l6.46-6.46c.66-.66.85-1.8.09-2.47Z"/>
  </g>
  <path class="cls-7" d="M26.44,28.28h-10.64c-1.14,0-1.99.85-1.99,1.99v10.73c0,1.14.85,1.99,1.99,1.99h10.73c1.14,0,1.99-.85,1.99-1.99v-10.73c-.09-1.14-1.04-1.99-2.09-1.99ZM26.44,41.1h-10.83v-10.83h10.83v10.83Z"/>
  <g>
    <g>
      <polygon class="cls-7" points="94.44 38.06 90.07 35.78 85.8 38.06 86.56 33.22 83.14 29.89 87.89 29.13 90.07 24.77 92.16 29.13 96.91 29.89 93.59 33.22 94.44 38.06"/>
      <polygon class="cls-7" points="109.73 38.06 105.55 35.78 101.28 38.06 102.04 33.22 98.62 29.89 103.37 29.13 105.55 24.77 107.64 29.13 112.39 29.89 108.88 33.22 109.73 38.06"/>
      <polygon class="cls-7" points="124.64 38.06 120.27 35.78 116.1 38.06 116.95 33.22 113.44 29.89 118.19 29.13 120.27 24.77 122.46 29.13 127.21 29.89 123.79 33.22 124.64 38.06"/>
      <polygon class="cls-7" points="139.46 38.06 135.28 35.78 131.01 38.06 131.67 33.22 128.35 29.89 133 29.13 135.09 24.77 137.37 29.13 142.12 29.89 138.61 33.22 139.46 38.06"/>
      <polygon class="cls-7" points="154.37 38.06 150 35.78 145.82 38.06 146.68 33.22 143.16 29.89 147.91 29.13 150 24.77 152.09 29.13 156.94 29.89 153.52 33.22 154.37 38.06"/>
    </g>
    <g>
      <circle class="cls-2" cx="55.98" cy="40.25" r="16.91"/>
      <g class="cls-8">
        <g>
          <path class="cls-7" d="M62.15,34.93h0c-.09-.09-.38-.09-.38.09,0,0,.57-3.13.09-4.46-.95-3.51-9.12-4.46-9.12-2.28-3.51.95-2.85,4.37-2.37,6.93,0,0-.28-.28-.57,0-.38.38,0,1.42.09,1.8.09.28.09.57.28.85v.09c0,.38.09.57.28.57.85,3.13,3.23,5.79,5.51,5.79,1.99,0,4.46-2.56,5.32-5.79.09,0,.28-.28.28-.57h0c.09-.09.09-.38.28-.85.28-.47.85-1.71.28-2.18h0Z"/>
          <path class="cls-7" d="M52.18,43.95c-6.46,3.7-9.78,1.52-9.78,10.26h26.97c0-8.45-3.23-6.74-9.69-10.26-1.14.95-2.37,1.71-3.8,1.71-1.33.09-2.56-.57-3.7-1.71h0Z"/>
        </g>
      </g>
    </g>
    <line class="cls-2" x1="86.27" y1="44.52" x2="153.99" y2="44.52"/>
    <line class="cls-2" x1="86.27" y1="54.11" x2="127.21" y2="54.11"/>
  </g>
  <g>
    <g>
      <polygon class="cls-6" points="94.44 82.8 90.07 80.52 85.8 82.8 86.56 78.14 83.14 74.72 87.89 74.06 90.07 69.69 92.16 73.87 96.91 74.63 93.59 77.95 94.44 82.8"/>
      <polygon class="cls-6" points="109.73 82.8 105.55 80.52 101.28 82.8 102.04 78.14 98.62 74.72 103.37 74.06 105.55 69.69 107.64 73.87 112.39 74.63 108.88 77.95 109.73 82.8"/>
      <polygon class="cls-6" points="124.64 82.8 120.27 80.52 116.1 82.8 116.95 78.14 113.44 74.72 118.19 74.06 120.27 69.69 122.46 73.87 127.21 74.63 123.79 77.95 124.64 82.8"/>
      <polygon class="cls-6" points="139.46 82.8 135.28 80.52 131.01 82.8 131.67 78.14 128.35 74.72 133 74.06 135.09 69.69 137.37 73.87 142.12 74.63 138.61 77.95 139.46 82.8"/>
      <polygon class="cls-6" points="154.37 82.8 150 80.52 145.82 82.8 146.68 78.14 143.16 74.72 147.91 74.06 150 69.69 152.09 73.87 156.94 74.63 153.52 77.95 154.37 82.8"/>
    </g>
    <g>
      <circle class="cls-3" cx="55.98" cy="85.07" r="16.91"/>
      <g class="cls-4">
        <g>
          <path class="cls-6" d="M62.15,79.85h0c-.09-.09-.38-.09-.38.09,0,0,.57-3.13.09-4.46-.95-3.51-9.12-4.46-9.12-2.28-3.51.95-2.85,4.37-2.37,6.93,0,0-.28-.28-.57,0-.38.38,0,1.42.09,1.8.09.28.09.57.28.85v-.19c0,.38.09.57.28.57.85,3.13,3.23,5.79,5.51,5.79,1.99,0,4.46-2.56,5.32-5.79.09,0,.28-.28.28-.57h0c.09-.09.09-.38.28-.85.28-.38.85-1.61.28-1.9h0Z"/>
          <path class="cls-6" d="M52.18,88.87c-6.46,3.61-9.78,1.52-9.78,10.26h26.97c0-8.45-3.23-6.74-9.69-10.26-1.14.95-2.37,1.71-3.8,1.71-1.33-.09-2.56-.76-3.7-1.71h0Z"/>
        </g>
      </g>
    </g>
    <line class="cls-3" x1="86.27" y1="89.25" x2="153.99" y2="89.25"/>
    <line class="cls-3" x1="86.27" y1="98.94" x2="127.21" y2="98.94"/>
  </g>
  <g>
    <g>
      <polygon class="cls-6" points="93.78 128.38 89.41 126.1 85.13 128.48 85.89 123.73 82.48 120.31 87.32 119.65 89.41 115.28 91.5 119.65 96.34 120.22 92.92 123.54 93.78 128.38"/>
      <polygon class="cls-6" points="109.16 128.38 104.89 126.1 100.71 128.48 101.38 123.73 97.96 120.31 102.8 119.65 104.89 115.28 106.98 119.65 111.82 120.22 108.31 123.54 109.16 128.38"/>
      <polygon class="cls-6" points="124.07 128.38 119.71 126.1 115.43 128.48 116.29 123.73 112.77 120.31 117.52 119.65 119.71 115.28 121.79 119.65 126.54 120.22 123.22 123.54 124.07 128.38"/>
      <polygon class="cls-6" points="138.8 128.38 134.62 126.1 130.34 128.48 131.1 123.73 127.68 120.31 132.34 119.65 134.43 115.28 136.71 119.65 141.55 120.22 137.94 123.54 138.8 128.38"/>
      <polygon class="cls-6" points="153.8 128.38 149.43 126.1 145.16 128.48 146.01 123.73 142.5 120.31 147.25 119.65 149.43 115.28 151.52 119.65 156.27 120.22 152.95 123.54 153.8 128.38"/>
    </g>
    <g>
      <circle class="cls-3" cx="55.31" cy="130.57" r="16.91"/>
      <g class="cls-5">
        <g>
          <path class="cls-6" d="M61.49,125.44h0c-.09-.09-.38-.09-.38.09,0,0,.57-3.13.09-4.46-.95-3.51-9.12-4.46-9.12-2.28-3.51.95-2.85,4.37-2.37,6.93,0,0-.28-.28-.57,0-.38.38,0,1.42.09,1.8.09.28.09.57.28.85v.09c0,.38.09.57.28.57.85,3.13,3.23,5.79,5.51,5.79,1.99,0,4.46-2.56,5.32-5.79.09,0,.28-.28.28-.57h0c.09-.09.09-.38.28-.85.28-.66.85-1.9.28-2.18h0Z"/>
          <path class="cls-6" d="M51.51,134.37c-6.46,3.7-9.69,1.52-9.69,10.26h26.97c0-8.45-3.23-6.74-9.69-10.26-1.14.95-2.37,1.71-3.8,1.71s-2.66-.66-3.8-1.71h0Z"/>
        </g>
      </g>
    </g>
    <line class="cls-3" x1="85.61" y1="134.84" x2="153.33" y2="134.84"/>
    <line class="cls-3" x1="85.61" y1="144.53" x2="126.54" y2="144.53"/>
  </g>
</svg>