<?xml version="1.0" encoding="utf-8"?>
<!-- Generator: Adobe Illustrator 22.0.0, SVG Export Plug-In . SVG Version: 6.00 Build 0)  -->
<svg version="1.1" id="Calque_1" xmlns="http://www.w3.org/2000/svg" xmlns:xlink="http://www.w3.org/1999/xlink" x="0px" y="0px"
	 viewBox="0 0 171.5 139.1" style="enable-background:new 0 0 171.5 139.1;" xml:space="preserve">
<style type="text/css">
	.st0{fill:#423B97;}
	.st1{fill:none;stroke:#FFFFFF;stroke-width:2;stroke-miterlimit:10;}
	.st2{fill:#ED7423;}
</style>
<title>covoiturage</title>
<ellipse class="st0" cx="85.8" cy="128.2" rx="85.8" ry="10.9"/>
<path class="st0" d="M67.4,31.9L67.4,31.9c-0.2-0.2-0.3-0.2-0.5,0.2c0.3-1.4,0.3-3,0.2-4.6C66.2,24,58,23.1,58,25.1
	c-3.6,0.9-2.8,4.4-2.4,6.9c-0.2-0.2-0.3-0.2-0.5,0l0,0c-0.3,0.5,0,1.4,0.2,1.9c0,0.3,0.2,0.5,0.3,0.8v0.2c0,0.3,0.2,0.6,0.3,0.6
	c0.8,3.2,3.3,5.8,5.5,5.8s4.6-2.7,5.4-5.8c0.2,0,0.3-0.3,0.3-0.6l0,0c0.2-0.3,0.3-0.5,0.3-0.8C67.3,33.5,67.7,32.2,67.4,31.9
	L67.4,31.9z"/>
<path class="st0" d="M57.3,40.9c-6.6,3.6-9.8,1.6-9.8,10.4h27.1c0-8.5-3.3-6.8-9.8-10.4c-0.9,1.1-2.4,1.7-3.8,1.7
	C59.7,42.6,58.3,42,57.3,40.9z"/>
<path class="st0" d="M120.2,31.9L120.2,31.9c-0.2-0.2-0.3-0.2-0.5,0.2c0.3-1.4,0.3-3,0.2-4.6c-0.9-3.5-9.1-4.4-9.1-2.4
	c-3.6,0.9-2.8,4.4-2.4,6.9c-0.2-0.2-0.5-0.2-0.6,0l0,0c-0.3,0.5,0,1.4,0.2,1.9c0,0.3,0.2,0.5,0.3,0.8v0.2c0,0.3,0.2,0.6,0.3,0.6
	c0.8,3.2,3.3,5.8,5.5,5.8c2.2,0,4.6-2.7,5.4-5.8c0.2,0,0.3-0.3,0.3-0.6l0,0c0.2-0.3,0.3-0.5,0.3-0.8
	C120.2,33.5,120.7,32.2,120.2,31.9L120.2,31.9z"/>
<path class="st0" d="M110.1,40.9c-6.5,3.6-9.8,1.6-9.8,10.4h27.3c0-8.5-3.3-6.8-9.8-10.4c-0.9,1.1-2.4,1.7-3.8,1.7
	S111.2,42,110.1,40.9z"/>
<circle class="st1" cx="114.1" cy="53.7" r="7.4"/>
<path class="st2" d="M164.8,40.7l-14.7,3l-16.2-29.6H39.7c-4.7,9.6-9.3,19.2-14,28.7c-2.4-0.3-14.5-3.3-17.7-4.4v10.4l13.2,4.4
	c-3,4.9-5.8,9.8-8.8,14.7l2.2,59.6h16.2v-14.7h111.9v14.7h17.7l4.4-57.4L153.2,54l11.8-4.4L164.8,40.7z M36.1,44.4l11.8-23.6h79.6
	l11.8,23.6v7.4H36.1V44.4z M40.5,87.9c-5.4,0-9.6-4.3-9.6-9.6c0-5.4,4.3-9.6,9.6-9.6c5.4,0,9.6,4.3,9.6,9.6l0,0
	C50.1,83.6,45.7,87.9,40.5,87.9z M134.7,89.3c-5.4,0-9.6-4.3-9.6-9.6c0-5.4,4.3-9.6,9.6-9.6c5.4,0,9.6,4.3,9.6,9.6l0,0
	C144.4,85,139.9,89.3,134.7,89.3z"/>
</svg>
