<?xml version="1.0" encoding="UTF-8"?>
<svg id="Layer_1" data-name="Layer 1" xmlns="http://www.w3.org/2000/svg" xmlns:xlink="http://www.w3.org/1999/xlink" viewBox="0 0 170.08 175.5">
  <defs>
    <style>
      .cls-1, .cls-2 {
        fill: none;
      }

      .cls-3 {
        fill: #010101;
      }

      .cls-4 {
        fill: #e8a375;
      }

      .cls-2 {
        stroke-width: 1.76px;
      }

      .cls-2, .cls-5 {
        stroke: #1db575;
        stroke-miterlimit: 10;
      }

      .cls-6 {
        fill: #fadac4;
      }

      .cls-7 {
        fill: #1db575;
      }

      .cls-5 {
        fill: #fff;
        stroke-width: .44px;
      }

      .cls-8 {
        fill: #333;
      }

      .cls-9 {
        clip-path: url(#clippath);
      }
    </style>
    <clipPath id="clippath">
      <circle class="cls-1" cx="36.01" cy="56.62" r="20.81" transform="translate(-21.27 91.57) rotate(-88.94)"/>
    </clipPath>
  </defs>
  <circle class="cls-2" cx="36.01" cy="56.62" r="25.37"/>
  <g class="cls-9">
    <g>
      <path class="cls-7" d="M45.31,48.8h0c-.26-.18-.53-.18-.7.18,0,0,.79-4.74.18-6.67-1.49-5.27-13.7-6.67-13.7-3.51-5.36,1.49-4.3,6.41-3.6,10.18-.26-.26-.53-.26-.79,0h0c-.53.7,0,2.02.26,2.81.18.44.26.79.44,1.23v.18c0,.53.18.97.53.97,1.23,4.74,5,8.6,8.16,8.6s6.67-3.86,8.08-8.6c.26,0,.44-.44.44-.97h0c.26-.44.44-.79.53-1.23.18-.7.97-2.55.18-3.16h0Z"/>
      <path class="cls-7" d="M30.39,62.24c-9.66,5.44-14.49,2.46-14.49,15.45h40.56c0-12.64-4.83-10.1-14.49-15.45-1.49,1.58-3.51,2.46-5.62,2.55-2.37,0-4.48-.88-5.97-2.55Z"/>
    </g>
  </g>
  <g>
    <polygon class="cls-7" points="74.11 51.09 68.32 48.01 62.61 51.17 63.57 44.77 59.01 40.2 65.42 39.23 68.23 33.44 71.21 39.23 77.62 40.02 73.06 44.68 74.11 51.09"/>
    <polygon class="cls-5" points="95 51.09 89.21 48.01 83.42 51.17 84.47 44.77 79.82 40.2 86.31 39.23 89.12 33.44 92.02 39.23 98.52 40.02 93.77 44.68 95 51.09"/>
    <polygon class="cls-5" points="115.11 51.09 109.23 48.01 103.43 51.17 104.57 44.77 99.83 40.2 106.24 39.23 109.14 33.44 112.04 39.23 118.44 40.02 113.88 44.68 115.11 51.09"/>
    <polygon class="cls-5" points="135.91 51.09 130.21 48.01 124.41 51.17 125.47 44.77 120.81 40.2 127.14 39.23 130.12 33.44 133.02 39.23 139.34 40.02 134.77 44.68 135.91 51.09"/>
    <polygon class="cls-5" points="155.93 51.09 150.14 48.01 144.43 51.17 145.4 44.77 140.83 40.2 147.24 39.23 150.14 33.44 153.03 39.23 159.44 40.02 154.88 44.68 155.93 51.09"/>
    <line class="cls-2" x1="64.1" y1="59.87" x2="155.49" y2="59.87"/>
    <line class="cls-2" x1="64.1" y1="71.8" x2="155.49" y2="71.8"/>
    <line class="cls-2" x1="64.1" y1="83.74" x2="119.32" y2="83.74"/>
  </g>
  <g>
    <polygon class="cls-4" points="86.4 148.36 86.4 103.15 112.21 103.15 112.21 148.36 86.4 148.36"/>
    <polygon class="cls-3" points="83.24 145.11 83.24 125.8 115.37 125.8 115.37 145.11 83.24 145.11"/>
    <polygon class="cls-8" points="80.25 149.06 80.25 133.17 118.27 133.17 118.27 149.06 80.25 149.06"/>
    <path class="cls-4" d="M123.89,83.83v11.76c0,8.34-8.6,28.71-27.04,24.23-24.05-5.97-23.7-16.94-23.7-24.49,0-8.34,6.5-10.71,7.29-11.5l.97,11.94-.44-41.17c-.18-7.55,5.53-7.37,5.53-7.37,5.71,0,5.71,7.02,5.71,7.02l.44,22.12c1.32-3.95,3.42-3.95,5.18-3.95,3.42,0,5,3.95,5.71,6.23.79-4.92,4.39-4.48,5.44-4.48,4.48,0,5,3.69,5.53,5.97.26-2.11,2.28-3.69,4.39-3.42,5.79-.18,5,7.11,5,7.11h0Z"/>
    <path class="cls-6" d="M86.49,48.36c-2.11-.18-3.86,1.58-3.95,3.69v1.32c-.18,2.11,1.58,3.86,3.69,3.95h.44c2.11,0,3.95-1.58,3.95-3.69v-1.32c0-2.11-1.58-3.95-3.69-3.95q-.18,0-.44,0h0Z"/>
  </g>
</svg>