<?xml version="1.0" encoding="UTF-8"?>
<svg id="Layer_1" data-name="Layer 1" xmlns="http://www.w3.org/2000/svg" viewBox="0 0 170.08 175.5">
  <defs>
    <style>
      .cls-1 {
        stroke-width: 7.73px;
      }

      .cls-1, .cls-2 {
        fill: none;
        stroke: #454546;
        stroke-miterlimit: 10;
      }

      .cls-3 {
        fill: #fff;
      }

      .cls-2 {
        stroke-dasharray: 4.83;
        stroke-width: 1.93px;
      }

      .cls-4 {
        fill: #1db575;
      }

      .cls-5 {
        fill: #333;
      }
    </style>
  </defs>
  <circle class="cls-1" cx="107.49" cy="80.4" r="45.92"/>
  <rect class="cls-5" x="45.05" y="100.5" width="22.91" height="12.86" transform="translate(-42.8 37.9) rotate(-27.34)"/>
  <path class="cls-5" d="M15.94,118.01l26.3-13.63h0l8.02,15.57h0l-26.3,13.63c-4.35,2.22-9.57.58-11.79-3.77h0c-2.22-4.25-.58-9.57,3.77-11.79h0Z"/>
  <rect class="cls-4" x="46" y="102.05" width="5.32" height="17.79" transform="translate(-45.52 34.74) rotate(-27.34)"/>
  <path class="cls-4" d="M131.76,89.49c-2.9-2.9-7.64-2.9-10.54,0-2.9,2.9-2.9,7.64,0,10.54l5.22,5.22,5.32-5.22c2.9-2.9,2.9-7.54,0-10.54ZM126.54,100.02c-2.9,0-5.32-2.32-5.32-5.22s2.32-5.32,5.22-5.32,5.32,2.32,5.32,5.22h0c0,3-2.32,5.32-5.22,5.32Z"/>
  <circle class="cls-3" cx="126.63" cy="94.71" r="5.32"/>
  <path class="cls-4" d="M130.69,92.68l-.77.19-.87-1.55h-5.03l-.77,1.55c-.1,0-.77-.19-.97-.29v.58l.68.29-.48.77.1,3.19h.87v-.77h5.99v.77h.97l.29-3.09-.68-.87.68-.29v-.48ZM123.83,92.87l.68-1.26h4.25l.58,1.26v.39h-5.51v-.39ZM124.02,95.19c-.29,0-.48-.19-.48-.48s.19-.48.48-.48.48.19.48.48h0c.1.29-.19.48-.48.48ZM129.15,95.29c-.29,0-.48-.19-.48-.48s.19-.48.48-.48.48.19.48.48c0,.19-.19.48-.48.48h0Z"/>
  <path class="cls-4" d="M90.38,72.08c-2.9-2.9-7.64-2.9-10.54,0s-2.9,7.64,0,10.54l5.32,5.32,5.32-5.22c2.8-3,2.8-7.64-.1-10.63,0,.1,0,0,0,0ZM85.06,82.62c-2.9,0-5.32-2.32-5.32-5.22s2.32-5.32,5.22-5.32,5.32,2.32,5.32,5.22h0c.1,3-2.32,5.32-5.22,5.32Z"/>
  <circle class="cls-3" cx="85.16" cy="77.3" r="5.32"/>
  <path class="cls-4" d="M89.32,75.27l-.77.19-.87-1.55h-5.03l-.77,1.45c-.1,0-.77-.19-.97-.29v.58l.68.29-.48.77.1,3.19h.87v-.77h5.99v.77h.97l.19-3.09-.58-.87.68-.29v-.39ZM82.35,75.47l.68-1.26h4.25l.68,1.26v.39h-5.51l-.1-.39ZM82.64,77.79c-.29,0-.48-.19-.48-.48s.19-.48.48-.48h0c.29,0,.48.19.48.48s-.19.48-.48.48ZM87.67,77.88c-.29,0-.48-.19-.48-.48s.19-.48.48-.48.48.19.48.48c0,.19-.19.48-.48.48h0Z"/>
  <path class="cls-2" d="M72.98,59.22l26.59.19s14.5-3.48,14.5,12.67-18.08,13.54-18.08,13.54c0,0-11.5,3.48-10.83,12.57,2.51,9.96,5.41,10.44,15.18,11.21h37.22"/>
  <path class="cls-4" d="M115.32,44.34c-3-3-7.83-3-10.73,0-3,3-3,7.83,0,10.73l5.41,5.32,5.41-5.32c2.8-3,2.8-7.83-.1-10.73ZM109.91,54.97c-3,0-5.41-2.42-5.41-5.41s2.42-5.41,5.41-5.41,5.41,2.42,5.41,5.41h0c0,3.09-2.42,5.41-5.41,5.41Z"/>
  <circle class="cls-3" cx="110.01" cy="49.56" r="5.41"/>
  <path class="cls-4" d="M111.07,49.46l-.58.1-.68-1.16h-3.77l-.58,1.16c-.1,0-.58-.1-.68-.19v.39l.58.19-.39.58.1,2.42h.68v-.58h4.54v.58h.68l.19-2.32-.48-.68.48-.19-.1-.29ZM105.85,49.65l.48-.97h3.19l.48.97v.29h-4.16v-.29ZM106.04,51.39c-.19,0-.39-.19-.39-.39s.19-.39.39-.39.39.19.39.39-.19.39-.39.39h0ZM109.81,51.49c-.19,0-.39-.19-.39-.39s.19-.39.39-.39.39.19.39.39-.19.29-.39.39h0Z"/>
  <path class="cls-4" d="M114.55,46.85h-.19c-.58.19-1.35.19-1.93,0-.58-.29-1.26-.29-1.93-.1v-.1c0-.1-.1-.19-.19-.19s-.19.1-.19.19h0v4.74c0,.1.1.19.19.19s.19-.1.19-.19v-1.74c.58-.19,1.26-.19,1.84,0,.29.19.68.19,1.06.19s.77-.1,1.16-.19c.1,0,.1-.1.1-.19v-2.51c.1,0,0-.1-.1-.1Z"/>
</svg>