<?xml version="1.0" encoding="UTF-8"?>
<svg id="Layer_1" data-name="Layer 1" xmlns="http://www.w3.org/2000/svg" xmlns:xlink="http://www.w3.org/1999/xlink" viewBox="0 0 170.08 175.5">
  <defs>
    <style>
      .cls-1, .cls-2 {
        fill: none;
      }

      .cls-2 {
        stroke: #1db575;
        stroke-miterlimit: 10;
        stroke-width: .65px;
      }

      .cls-3 {
        fill: #454546;
      }

      .cls-4 {
        fill: #010101;
      }

      .cls-5 {
        fill: #e8a375;
      }

      .cls-6 {
        fill: #fed6b7;
      }

      .cls-7 {
        isolation: isolate;
      }

      .cls-8 {
        fill: #ce7a41;
      }

      .cls-9 {
        fill: #fff;
      }

      .cls-10 {
        fill: #1db575;
      }

      .cls-11 {
        fill: #fff3e9;
      }

      .cls-12 {
        fill: #333;
      }

      .cls-13 {
        clip-path: url(#clippath);
      }
    </style>
    <clipPath id="clippath">
      <path class="cls-1" d="M71.24,21.33c2.57,0,4.65,2.08,4.65,4.65s-2.08,4.65-4.65,4.65-4.65-2.08-4.65-4.65,2.08-4.65,4.65-4.65Z"/>
    </clipPath>
  </defs>
  <path id="_Tracé_" data-name=" Tracé " class="cls-6" d="M110.59,61.84h0c1.94,2.45,1.55,5.94-.9,7.87l-43.74,35.74c-2.45,1.94-5.94,1.55-7.87-.9h0c-1.94-2.45-1.55-5.94.9-7.87l43.74-35.74c2.32-1.94,5.94-1.55,7.87.9q0-.13,0,0Z"/>
  <polygon id="_Tracé_2" data-name=" Tracé 2" class="cls-5" points="33.18 126.23 62.72 135.39 69.95 112.16 94.59 83.65 50.59 69.97 33.18 126.23"/>
  <path id="_Tracé_3" data-name=" Tracé 3" class="cls-5" d="M108.14,79.65h0c1.94,2.45,1.55,5.94-.9,7.87l-43.74,35.74c-2.45,1.94-5.94,1.55-7.87-.9h0c-1.94-2.45-1.55-5.94.9-7.87l43.74-35.74c2.45-1.81,5.94-1.42,7.87.9Z"/>
  <path id="_Tracé_4" data-name=" Tracé 4" class="cls-5" d="M116.66,40.17h0c1.94,2.45,1.55,5.94-.9,7.87l-42.19,34.45c-2.45,1.94-5.94,1.55-7.87-.9h0c-1.94-2.45-1.55-5.94.9-7.87l42.19-34.32c2.45-2.06,5.94-1.68,7.87.77h0Z"/>
  <g id="_Groupe_" data-name=" Groupe ">
    <path id="_Tracé_5" data-name=" Tracé 5" class="cls-4" d="M63.88,5.84h31.35c6.06,0,10.97,4.9,10.97,10.97v83.1c0,6.06-4.9,10.97-10.97,10.97h-31.35c-6.06,0-10.97-4.9-10.97-10.97V16.81c0-6.06,4.9-10.97,10.97-10.97Z"/>
    <path id="_Tracé_6" data-name=" Tracé 6" class="cls-9" d="M58.85,14.62h41.29c.77,0,1.29.65,1.29,1.29v84c0,.77-.65,1.29-1.29,1.29h-41.29c-.77,0-1.29-.65-1.29-1.29V15.91c0-.65.65-1.29,1.29-1.29Z"/>
    <path id="_Tracé_7" data-name=" Tracé 7" class="cls-12" d="M71.5,8.42h16.13c.39,0,.77.39.77.77h0c0,.39-.39.77-.77.77h-16.13c-.39,0-.77-.39-.77-.77h0c0-.39.26-.77.77-.77Z"/>
    <path id="_Tracé_8" data-name=" Tracé 8" class="cls-12" d="M79.5,103.26c1.55,0,2.71,1.16,2.71,2.71s-1.16,2.71-2.71,2.71-2.71-1.16-2.71-2.71h0c.13-1.42,1.29-2.71,2.71-2.71Z"/>
    <g id="_Groupe_2" data-name=" Groupe 2">
      <rect id="_Rectangle_" data-name=" Rectangle " class="cls-10" x="62.34" y="55.78" width="34.58" height="14.19"/>
      <g class="cls-7">
        <path class="cls-9" d="M64.4,59.52h2.97c1.29,0,2.19.77,2.19,2.06v.65c0,1.29-.9,2.06-2.19,2.06h-1.29v2.45h-1.68v-7.23ZM67.24,62.87c.52,0,.77-.26.77-.77v-.39c0-.52-.26-.77-.77-.77h-1.03v1.94h1.03Z"/>
        <path class="cls-9" d="M69.82,66.36l2.19-6.84h2.32l2.19,6.84v.26h-1.68l-.39-1.42h-2.58l-.39,1.42h-1.68s0-.26,0-.26ZM73.95,63.78c-.26-.9-.52-1.81-.77-2.84h0c-.26,1.03-.52,1.94-.77,2.84h1.55Z"/>
        <path class="cls-9" d="M78.34,64.29l-2.45-4.39v-.26h1.68l1.55,3.23h0l1.55-3.23h1.68v.26l-2.45,4.39v2.32h-1.55v-2.32Z"/>
        <path class="cls-9" d="M83.5,59.52h5.16v1.29h-3.35v1.42h2.97v1.29h-2.97v1.55h3.35v1.29h-5.16v-6.84Z"/>
        <path class="cls-9" d="M89.82,59.52h3.1c1.42,0,2.19.77,2.19,2.06v.65c0,.77-.39,1.42-1.16,1.81l1.29,2.32v.26h-1.81l-1.03-2.45h-.9v2.45h-1.68v-7.1ZM92.66,62.87c.52,0,.77-.26.77-.77v-.39c0-.52-.26-.77-.77-.77h-1.16v1.94h1.16Z"/>
      </g>
    </g>
    <g id="_Groupe_3" data-name=" Groupe 3">
      <rect id="_Rectangle_2" data-name=" Rectangle 2" class="cls-12" x="61.05" y="76.94" width="11.1" height="20.39"/>
      <rect id="_Rectangle_3" data-name=" Rectangle 3" class="cls-12" x="74.08" y="76.94" width="11.1" height="20.39"/>
      <rect id="_Rectangle_4" data-name=" Rectangle 4" class="cls-12" x="86.98" y="76.94" width="11.1" height="20.39"/>
    </g>
  </g>
  <path id="_Tracé_9" data-name=" Tracé 9" class="cls-5" d="M112.27,76.42h0c1.94,2.45,1.55,5.94-.9,7.87l-8.13,6.58c-2.45,1.94-5.94,1.55-7.87-.9h0c-1.94-2.45-1.55-5.94.9-7.87l8.13-6.58c2.32-1.94,5.81-1.55,7.87.9Z"/>
  <path id="_Tracé_10" data-name=" Tracé 10" class="cls-5" d="M115.24,58.1h0c1.94,2.45,1.55,5.94-.9,7.87l-6.97,5.55c-2.45,1.94-5.94,1.55-7.87-.9h0c-1.94-2.45-1.55-5.94.9-7.87l6.97-5.55c2.45-1.94,5.94-1.55,7.87.9Z"/>
  <polygon id="_Tracé_11" data-name=" Tracé 11" class="cls-12" points="31.37 116.81 69.43 128.68 56.79 169.45 15.11 169.45 31.37 116.81"/>
  <path id="_Tracé_12" data-name=" Tracé 12" class="cls-5" d="M44.01,104.03l3.74,1.16,1.03-4.77,8.39-38.71c1.68-8-3.23-10.71-8.26-12.26l-9.81,45.68c-.9,3.74,1.16,7.61,4.9,8.9Z"/>
  <g id="_Groupe_4" data-name=" Groupe 4">
    <g id="_Groupe_5" data-name=" Groupe 5">
      <polygon id="_Tracé_13" data-name=" Tracé 13" class="cls-5" points="105.17 143.13 115.88 169.45 149.82 169.45 137.43 137.32 105.17 143.13"/>
      <polygon id="_Tracé_14" data-name=" Tracé 14" class="cls-12" points="147.37 151.13 154.46 169.32 154.33 169.45 112.92 169.45 111.24 165.07 147.37 151.13"/>
    </g>
    <g id="_Groupe_6" data-name=" Groupe 6">
      <path id="_Tracé_15" data-name=" Tracé 15" class="cls-5" d="M76.14,116.03l15.74,22.32c2.06,2.84,12.52,11.74,15.61,9.94s-1.29-11.61-3.35-14.45l-12-15.1c-6.97-8.65-12.9-5.03-16-2.71Z"/>
      <path id="_Tracé_16" data-name=" Tracé 16" class="cls-5" d="M81.05,71.65l12.64,28.9c1.03-5.29,9.03-6.06,11.87-1.03.26-5.55,7.74-6.84,11.23-2.97,1.16-5.03,9.16-5.55,11.48-.13l10.84,24.52c3.1,6.84,3.23,17.42,1.81,22.19-4.13,14.32-22.97,14.71-29.55,10.32-5.16-3.48-9.29-5.29-10.97-8.9l-30.97-67.87c-4-8.64,8.52-12.13,11.61-5.03Z"/>
      <path id="_Tracé_transparent_" data-name=" Tracé transparent " class="cls-8" d="M121.05,105.07s-2.06-4.9-3.87-9.29c-.13.26-.26.52-.26.77-.26-.39-.65-.65-1.03-.9,2.32,4.26,5.16,9.42,5.16,9.42h0ZM93.69,100.42c.13-.39.26-.9.52-1.29,2.06,4.9,5.42,13.29,5.42,13.29,0,0-4.26-8.26-5.94-11.87q0,.13,0-.13h0ZM104.01,97.71c.65.52,1.16,1.16,1.55,1.81,0-.39.13-.65.13-1.03,2.06,4.77,4.65,10.71,4.65,10.71,0,0-4-7.1-6.32-11.48h0Z"/>
    </g>
  </g>
  <path id="_Tracé_17" data-name=" Tracé 17" class="cls-11" d="M50.72,50.1c-.52-.26-1.16-.39-1.68-.65l-1.94,9.16c3.1,0,3.48-5.16,3.61-8.52Z"/>
  <path id="_Tracé_18" data-name=" Tracé 18" class="cls-11" d="M101.3,63.65l1.94-1.42c3.23.65,5.42,3.48,5.29,6.84l-1.68,1.42c-5.16,3.87-9.68-3.74-5.55-6.84Z"/>
  <path id="_Tracé_19" data-name=" Tracé 19" class="cls-11" d="M97.17,82.87l1.81-1.42c3.23.65,5.42,3.48,5.29,6.84l-1.81,1.42c-4.9,3.87-9.42-3.74-5.29-6.84Z"/>
  <path id="_Tracé_20" data-name=" Tracé 20" class="cls-11" d="M78.47,71.91l1.03,2.58c-1.94,3.48-4.9,4.65-8.77,3.87l-1.03-2.32c-2.97-6.45,6.58-9.42,8.77-4.13Z"/>
  <path class="cls-10" d="M60.01,25.2h3.61c.39,0,.65-.26.65-.65v-2.45l-.65.65v1.81h-3.61v-3.61h2.84l.52-.52.13-.13h-3.61c-.39,0-.65.26-.65.65v3.61c.13.39.39.65.77.65Z"/>
  <path class="cls-10" d="M64.4,20.68c-.13-.13-.26-.13-.39-.13h0c-.13,0-.26.13-.39.13l-1.81,1.81-.39-.39c-.13-.13-.26-.13-.39-.13s-.26,0-.39.13c-.26.26-.26.52,0,.77l.39.39.39.39c.13.13.26.13.39.13s.26,0,.39-.13l2.06-2.06c.26-.26.39-.52.13-.9,0,.13,0,0,0,0Z"/>
  <polygon class="cls-10" points="62.72 37.97 61.3 37.2 59.88 37.97 60.14 36.42 58.98 35.26 60.53 35 61.3 33.58 61.95 35 63.5 35.26 62.47 36.29 62.72 37.97"/>
  <polygon class="cls-10" points="67.76 37.97 66.34 37.2 65.05 37.97 65.18 36.42 64.14 35.26 65.69 35 66.34 33.58 67.11 35 68.66 35.26 67.5 36.29 67.76 37.97"/>
  <polygon class="cls-10" points="72.66 37.97 71.24 37.2 69.82 37.97 70.21 36.42 69.05 35.26 70.59 35 71.24 33.58 72.01 35 73.56 35.26 72.4 36.29 72.66 37.97"/>
  <polygon class="cls-10" points="77.56 37.97 76.14 37.2 74.72 37.97 74.98 36.42 73.95 35.26 75.5 35 76.14 33.58 76.92 35 78.47 35.26 77.3 36.29 77.56 37.97"/>
  <polygon class="cls-10" points="82.47 37.97 81.05 37.2 79.63 37.97 79.88 36.42 78.72 35.26 80.4 35 81.05 33.58 81.82 35 83.37 35.26 82.21 36.29 82.47 37.97"/>
  <circle class="cls-2" cx="71.37" cy="25.97" r="5.55"/>
  <g class="cls-13">
    <g>
      <path class="cls-10" d="M73.17,24.17h0c0-.52,0-1.03-.13-1.42-.39-1.16-2.97-1.42-2.97-.77-1.16.39-.9,1.42-.77,2.19h-.13c-.13.13,0,.52,0,.65l.13.26h0c0,.13,0,.26.13.26.26,1.03,1.03,1.94,1.81,1.94s1.55-.9,1.81-1.94c0,0,.13-.13.13-.26h0c0-.13.13-.13.13-.26s.26-.52-.13-.65h0Z"/>
      <path class="cls-10" d="M69.95,27.26c-2.19,1.16-3.23.52-3.23,3.35h8.9c0-2.84-1.03-2.19-3.23-3.35-.65.77-1.68.77-2.32.26-.13-.13-.13-.26-.13-.26h0Z"/>
    </g>
  </g>
  <line class="cls-2" x1="79.24" y1="27.26" x2="98.98" y2="27.26"/>
  <line class="cls-2" x1="79.24" y1="24.04" x2="98.98" y2="24.04"/>
  <line class="cls-2" x1="79.24" y1="20.81" x2="98.98" y2="20.81"/>
  <line class="cls-2" x1="79.24" y1="30.49" x2="91.24" y2="30.49"/>
  <path class="cls-3" d="M84.01,42.75c-1.68,0-2.97,1.29-2.97,2.97s1.29,2.97,2.97,2.97,2.97-1.29,2.97-2.97-1.29-2.97-2.97-2.97h0ZM84.01,47.13c-.77,0-1.42-.65-1.42-1.42s.65-1.42,1.42-1.42,1.42.65,1.42,1.42h0c0,.77-.65,1.42-1.42,1.42Z"/>
  <path class="cls-3" d="M98.85,41.58s.13-.39-.39-1.81c-.52-1.16-1.29-2.19-2.06-3.1,0,0-1.55-1.42-5.68-1.55-2.97-.13-5.94,1.42-7.61,4-1.16,1.55-1.55.9-2.97,1.55s-1.68,2.06-1.68,3.61c0,.9.52,1.68,1.42,1.94h.65v-.65c.13-1.94,1.81-3.48,3.87-3.35,1.81.13,3.23,1.55,3.35,3.35v.65h4.13v-.65c.13-1.94,1.81-3.48,3.87-3.35,1.81.13,3.23,1.55,3.35,3.35v.52c.65-.52,1.03-1.42,1.03-2.32,0-.77-.52-1.68-1.29-2.19ZM90.98,39.39c0,.9-.52.77-.52.77h-5.03s-1.16-.13-.13-1.42c1.81-2.32,2.97-2.32,4.52-2.19h0c.65,0,1.16.52,1.16,1.16v1.68ZM95.63,40.29h-2.84c-.39,0-.39-.52-.39-.52v-2.32c0-.65.39-.65.39-.65,0,0,.13-.26,1.42.26,1.03.52,1.81,1.42,2.06,2.58.13.65-.65.65-.65.65Z"/>
  <path class="cls-3" d="M95.37,42.75c-1.68,0-2.97,1.29-2.97,2.97s1.29,2.97,2.97,2.97,2.97-1.29,2.97-2.97-1.42-2.97-2.97-2.97h0ZM95.37,47.13c-.77,0-1.42-.65-1.42-1.42s.65-1.42,1.42-1.42,1.42.65,1.42,1.42h0c0,.77-.65,1.42-1.42,1.42Z"/>
</svg>