<?xml version="1.0" encoding="UTF-8"?>
<svg id="Layer_1" data-name="Layer 1" xmlns="http://www.w3.org/2000/svg" viewBox="0 0 170.08 175.5">
  <defs>
    <style>
      .cls-1 {
        fill: #1db575;
      }

      .cls-2 {
        fill: none;
        stroke: #fff;
        stroke-miterlimit: 10;
        stroke-width: 1.81px;
      }

      .cls-3 {
        fill: #333;
      }
    </style>
  </defs>
  <ellipse class="cls-3" cx="85.04" cy="134.62" rx="77.76" ry="9.88"/>
  <path class="cls-3" d="M68.36,47.35h0c-.18-.18-.27-.18-.45.18.27-1.27.27-2.72.18-4.17-.82-3.17-8.25-3.99-8.25-2.18-3.26.82-2.54,3.99-2.18,6.25-.18-.18-.27-.18-.45,0h0c-.27.45,0,1.27.18,1.72,0,.27.18.45.27.73v.18c0,.27.18.54.27.54.73,2.9,2.99,5.26,4.98,5.26s4.17-2.45,4.89-5.26c.18,0,.27-.27.27-.54h0c.18-.27.27-.45.27-.73-.09-.54.27-1.72,0-1.99h0Z"/>
  <path class="cls-3" d="M59.21,55.5c-5.98,3.26-8.88,1.45-8.88,9.43h24.56c0-7.7-2.99-6.16-8.88-9.43-.82,1-2.18,1.54-3.44,1.54-1.18,0-2.45-.54-3.35-1.54Z"/>
  <path class="cls-3" d="M116.22,47.35h0c-.18-.18-.27-.18-.45.18.27-1.27.27-2.72.18-4.17-.82-3.17-8.25-3.99-8.25-2.18-3.26.82-2.54,3.99-2.18,6.25-.18-.18-.45-.18-.54,0h0c-.27.45,0,1.27.18,1.72,0,.27.18.45.27.73v.18c0,.27.18.54.27.54.73,2.9,2.99,5.26,4.98,5.26s4.17-2.45,4.89-5.26c.18,0,.27-.27.27-.54h0c.18-.27.27-.45.27-.73.09-.54.54-1.72.09-1.99h0Z"/>
  <path class="cls-3" d="M107.06,55.5c-5.89,3.26-8.88,1.45-8.88,9.43h24.74c0-7.7-2.99-6.16-8.88-9.43-.82,1-2.18,1.54-3.44,1.54s-2.54-.54-3.53-1.54Z"/>
  <circle class="cls-2" cx="110.69" cy="67.1" r="6.71"/>
  <path class="cls-1" d="M156.64,55.32l-13.32,2.72-14.68-26.83H43.26c-4.26,8.7-8.43,17.4-12.69,26.01-2.18-.27-13.14-2.99-16.04-3.99v9.43l11.96,3.99c-2.72,4.44-5.26,8.88-7.98,13.32l1.99,54.02h14.68v-13.32h101.42v13.32h16.04l3.99-52.02-10.51-14.59,10.69-3.99-.18-8.07ZM40,58.67l10.69-21.39h72.14l10.69,21.39v6.71H40v-6.71ZM43.98,98.1c-4.89,0-8.7-3.9-8.7-8.7s3.9-8.7,8.7-8.7,8.7,3.9,8.7,8.7h0c0,4.8-3.99,8.7-8.7,8.7ZM129.36,99.37c-4.89,0-8.7-3.9-8.7-8.7s3.9-8.7,8.7-8.7,8.7,3.9,8.7,8.7h0c.09,4.8-3.99,8.7-8.7,8.7Z"/>
</svg>