<?xml version="1.0" encoding="utf-8"?>
<!-- Generator: Adobe Illustrator 22.0.0, SVG Export Plug-In . SVG Version: 6.00 Build 0)  -->
<svg version="1.1" id="Calque_1" xmlns="http://www.w3.org/2000/svg" xmlns:xlink="http://www.w3.org/1999/xlink" x="0px" y="0px"
	 viewBox="0 0 171.5 139.1" style="enable-background:new 0 0 171.5 139.1;" xml:space="preserve">
<style type="text/css">
	.st0{fill:none;stroke:#423B97;stroke-width:3;stroke-miterlimit:10;stroke-dasharray:5;}
	.st1{fill:#ED7423;}
	.st2{fill:#FFFFFF;}
</style>
<g>
	<path class="st0" d="M126.4,29.2l-39.9-0.3c0,0-21.7-5.2-22.1,17.4s26.9,19.5,26.9,19.5s17.2,5.2,16,17.9
		c-4,13.9-8.4,14.5-23.1,15.3l-55.8-0.9"/>
	<g>
		<path class="st1" d="M134,7.1c-4.2-4.2-10.9-4.2-15.1,0s-4.2,10.9,0,15.1l7.5,7.5l7.6-7.5C138.2,18.1,138.2,11.3,134,7.1z
			 M126.4,22.2c-4.2,0-7.5-3.4-7.5-7.5c0-4.2,3.4-7.5,7.5-7.5c4.2,0,7.5,3.4,7.5,7.5C134,18.8,130.6,22.2,126.4,22.2z"/>
		<circle class="st2" cx="126.5" cy="14.5" r="7.6"/>
		<g>
			<path class="st1" d="M128,14.4l-0.8,0.2l-0.9-1.7H121c-0.3,0.5-0.5,1.1-0.8,1.6c-0.1,0-0.8-0.2-1-0.2c0,0.2,0,0.4,0,0.6
				c0.2,0.1,0.5,0.2,0.7,0.2c-0.2,0.3-0.3,0.6-0.5,0.8c0,1.1,0.1,2.2,0.1,3.4h0.9v-0.8h6.3v0.8h1l0.2-3.2l-0.7-0.9l0.7-0.2v-0.6H128
				z M120.8,14.6l0.7-1.3h4.5l0.7,1.3V15h-5.8L120.8,14.6L120.8,14.6z M121,17.1c-0.3,0-0.5-0.2-0.5-0.5s0.2-0.5,0.5-0.5
				s0.5,0.2,0.5,0.5C121.5,16.8,121.3,17.1,121,17.1z M126.3,17.1c-0.3,0-0.5-0.2-0.5-0.5s0.2-0.5,0.5-0.5s0.5,0.2,0.5,0.5
				C126.9,16.9,126.6,17.1,126.3,17.1z"/>
			<path class="st1" d="M133,10.7c-0.1,0-0.1,0-0.2,0c0,0-1.5,0.6-2.7,0c-1.1-0.5-2.2-0.3-2.8-0.1v-0.1c0-0.1-0.1-0.2-0.2-0.2
				s-0.2,0.1-0.2,0.2v0.4v3.6v2.7c0,0.1,0.1,0.2,0.2,0.2s0.2-0.1,0.2-0.2v-2.5c0.4-0.1,1.6-0.4,2.6,0c0.5,0.2,1,0.3,1.4,0.3
				c0.9,0,1.6-0.3,1.6-0.3c0.1,0,0.1-0.1,0.1-0.2v-3.6C133.1,10.8,133.1,10.7,133,10.7z"/>
		</g>
	</g>
	<g>
		<path class="st1" d="M118.9,65.7c-19.3,0-34.8,15.5-34.8,34.8s15.5,34.8,34.8,34.8s34.8-15.5,34.8-34.8
			C153.7,81.2,138.2,65.7,118.9,65.7L118.9,65.7z M137.9,102.1c0,1-0.6,1.6-1.6,1.6h-13.4c-0.5,0-0.8,0.3-0.8,0.8v13.4
			c0,1-0.6,1.6-1.6,1.6h-3.2c-1,0-1.6-0.6-1.6-1.6v-13.4c0-0.5-0.3-0.8-0.8-0.8h-13.5c-1,0-1.6-0.6-1.6-1.6v-3.2
			c0-1,0.6-1.6,1.6-1.6h13.5c0.5,0,0.8-0.3,0.8-0.8V83.1c0-1,0.6-1.6,1.6-1.6h3.2c1,0,1.6,0.6,1.6,1.6v13.5c0,0.5,0.3,0.8,0.8,0.8
			h13.4c1,0,1.6,0.6,1.6,1.6V102.1z"/>
	</g>
	<g>
		<path class="st1" d="M34.3,76.7c-4.1-4.1-10.7-4.1-14.8,0s-4.1,10.7,0,14.8l7.4,7.4l7.4-7.4C38.4,87.5,38.4,80.8,34.3,76.7z
			 M26.9,91.5c-4.1,0-7.4-3.3-7.4-7.4s3.3-7.4,7.4-7.4s7.4,3.3,7.4,7.4S31,91.5,26.9,91.5z"/>
		<g>
			<circle class="st2" cx="27" cy="84" r="7.5"/>
			<path class="st1" d="M32.8,81.2l-1.1,0.2l-1.2-2.2h-7.1c-0.4,0.7-0.7,1.4-1.1,2.2c-0.2,0-1.1-0.3-1.3-0.3c0,0.3,0,0.5,0,0.8
				c0.3,0.1,0.7,0.2,1,0.3c-0.2,0.4-0.4,0.7-0.7,1.1c0.1,1.5,0.1,3,0.2,4.5h1.2v-1.1h8.4v1.1h1.3l0.3-4.3l-0.9-1.2l0.9-0.3v-0.8
				H32.8z M23.1,81.4l0.9-1.8h6l0.9,1.8V82h-7.7v-0.6H23.1z M23.4,84.7c-0.4,0-0.7-0.3-0.7-0.7c0-0.4,0.3-0.7,0.7-0.7
				c0.4,0,0.7,0.3,0.7,0.7C24.2,84.4,23.8,84.7,23.4,84.7z M30.5,84.8c-0.4,0-0.7-0.3-0.7-0.7c0-0.4,0.3-0.7,0.7-0.7
				s0.7,0.3,0.7,0.7S30.9,84.8,30.5,84.8z"/>
		</g>
	</g>
</g>
</svg>
