<svg id="Layer_1" xmlns="http://www.w3.org/2000/svg" version="1.1" viewBox="0 0 841.9 95.3" style="width: 300px;"><defs><style>
              .st0 { fill: #444545; }
              .st1 { fill: #fff; }
              .st2 { fill: #1db575; }
            </style></defs><path class="st2" d="M217.6,6.2l-181.5.2c-8.2,0-15.1,2.2-20.9,6.6-5.7,4.4-8.6,9.7-8.6,16v45.3c0,6.2,2.9,11.5,8.6,16,5.7,4.4,12.7,6.6,20.9,6.6h210.9V6.2h-29.4Z" style="display: inline;"></path><path class="st1" d="M60.1,19.1c-18.1,0-32.7,14.6-32.7,32.7s14.6,32.7,32.7,32.7,25.5-8.5,30.3-20.5h-14.6c-3.7,4.7-9.3,7.7-15.7,7.7-9.2,0-16.9-6.2-19.2-14.7h51.5c.3-1.7.4-3.5.4-5.3,0-18.1-14.6-32.7-32.7-32.7ZM40.9,46.4c2.4-8.3,10.1-14.4,19.2-14.4s16.8,6.1,19.2,14.4h-38.3Z" style="display: inline;"></path><path class="st1" d="M132.5,31.9c6.7,0,12.7,3.3,16.3,8.4l9.8-8.2c-6-7.9-15.4-13-26.1-13-18.1,0-32.7,14.7-32.7,32.7s14.6,32.7,32.7,32.7,20.1-5.1,26.1-13l-9.8-8.2c-3.6,5.1-9.5,8.4-16.3,8.4-11,0-19.9-8.9-19.9-19.9s8.9-19.9,19.9-19.9Z" style="display: inline;"></path><path class="st1" d="M219.9,73.8c.2-.3.5-.5.7-.8.5-.6.9-1.1,1.3-1.7.2-.3.4-.5.6-.8.4-.6.8-1.2,1.2-1.8.2-.3.4-.6.5-.9.3-.6.7-1.3,1-1.9.2-.3.3-.6.5-1,.3-.7.5-1.3.8-2,.1-.3.3-.7.4-1,.2-.7.4-1.4.6-2.1,0-.4.2-.7.3-1.1.2-.8.3-1.6.4-2.3,0-.3.1-.6.1-1,.1-1.1.2-2.3.2-3.4s0-2.1-.2-3.1c0-.3,0-.6-.1-1,0-.7-.2-1.4-.3-2.1,0-.4-.1-.7-.2-1.1-.1-.6-.3-1.3-.5-1.9-.1-.3-.2-.7-.3-1-.2-.7-.5-1.3-.7-2-.1-.3-.2-.5-.3-.8-.4-.9-.8-1.7-1.2-2.6-.1-.2-.3-.5-.4-.7-.3-.6-.7-1.2-1.1-1.8-.2-.3-.4-.6-.7-.9-.2-.3-.4-.6-.6-.8,0,0,0,0,0,0-6-7.9-15.4-13-26.1-13s-16.7,3.5-22.6,9.1c0,0,0,0,0,0,0,0-.1.1-.2.2-.5.5-1,1-1.5,1.6-.2.3-.5.5-.7.8-.5.6-.9,1.1-1.3,1.7-.2.3-.4.5-.6.8-.4.6-.8,1.2-1.2,1.8-.2.3-.4.6-.5.9-.3.6-.7,1.3-1,1.9-.2.3-.3.6-.5,1-.3.7-.5,1.3-.8,2-.1.3-.3.7-.4,1-.2.7-.4,1.4-.6,2.1,0,.4-.2.7-.3,1.1-.2.8-.3,1.6-.4,2.3,0,.3-.1.6-.1,1-.1,1.1-.2,2.3-.2,3.4s0,2.1.2,3.1c0,.3,0,.6.1,1,0,.7.2,1.4.3,2.1,0,.4.1.7.2,1.1.1.6.3,1.3.5,1.9.1.3.2.7.3,1,.2.7.5,1.3.7,2,.1.3.2.5.3.8.4.9.8,1.7,1.2,2.6.1.2.3.5.4.7.3.6.7,1.2,1.1,1.8.2.3.4.6.7.9.2.3.4.6.6.8,0,0,0,0,0,0,6,7.9,15.4,13,26.1,13s16.7-3.5,22.6-9.1c0,0,0,0,0,0,0,0,.1-.1.2-.2.5-.5,1-1,1.5-1.6ZM195.6,71.8c-7.4,0-13.8-4-17.2-10-.4-.6-.7-1.3-1-1.9,0,0,0-.1,0-.2-.3-.7-.6-1.5-.8-2.3,0-.2-.1-.4-.2-.6-.2-.6-.3-1.2-.4-1.8,0-.2,0-.5-.1-.7-.1-.8-.2-1.6-.2-2.5s.1-2.2.3-3.2c0-.2,0-.3,0-.5.2-1,.5-2,.8-2.9,0-.2.1-.3.2-.5.4-.9.8-1.8,1.2-2.7,0-.1.1-.2.2-.4.5-.9,1.1-1.7,1.7-2.5,3.7-4.4,9.2-7.3,15.4-7.3s13.8,4,17.2,10c.4.6.7,1.3,1,1.9,0,0,0,.1,0,.2.3.7.6,1.5.8,2.3,0,.2.1.4.2.6.2.6.3,1.2.4,1.8,0,.2,0,.5.1.7.1.8.2,1.6.2,2.5s-.1,2.2-.3,3.2c0,.2,0,.3,0,.5-.2,1-.5,2-.8,2.9,0,.2-.1.3-.2.5-.4.9-.8,1.8-1.2,2.7,0,.1-.2.2-.2.4-.5.9-1.1,1.7-1.7,2.5-3.7,4.4-9.2,7.3-15.4,7.3Z" style="display: inline;"></path><path class="st0" d="M324.6,61.9h-37.3v34.9h-23.3v-56.3h86.4c2.8,0,5.1-2.3,5.1-5.1h0c0-2.8-2.3-5.1-5.1-5.1h-86.4V6.2h29.4l56.9.2c8.4-.1,15.4,1.8,21,5.8,5.6,4,8.4,10,8.4,18v10.3c0,7.9-2.5,13.4-7.4,16.7-4.9,3.2-12.3,4.8-22.2,4.8l29.6,34.9h-25.5l-29.6-34.9Z" style="display: inline;"></path><path class="st0" d="M420,96.8h-24v-56.6h24v56.6Z" style="display: inline;"></path><path class="st2" d="M413.7,30.1h-11.3c-3.5,0-6.3-2.8-6.3-6.3v-11.3h0c0-3.5,2.8-6.3,6.3-6.3h11.3c3.5,0,6.3,2.8,6.3,6.3h0v11.3c0,3.5-2.8,6.3-6.3,6.3Z" style="display: inline;"></path><path class="st0" d="M529.3,59.4v-17.4c-.7-3.1-2.9-5.9-6.5-8.2-3.6-2.4-8.2-3.6-13.7-3.6h-72.3V6.2h29.4l56.9.2c8.2,0,15.1,2.2,20.9,6.6,5.7,4.4,8.6,9.7,8.6,16v45.3c0,6.2-2.9,11.5-8.6,16-5.7,4.4-12.7,6.6-20.9,6.6h-86.4v-56.6h23.3v32.1h49.8c5,0,9.5-1.3,13.5-3.8,4-2.5,6-5.5,6-8.9Z" style="display: inline;"></path><path class="st0" d="M627,61.9v-21.5h-57.9v21.5h57.9ZM569.1,72.2v2c0,1.2.1,2.3.3,3.4.9,4.8,3.6,9,8.2,12.6,5.7,4.4,12.7,6.6,20.9,6.6h68.7c5,0,9.2-2.2,12.7-6.6,2.6-3.3,4.2-7.1,4.9-11.5v-6.5h-115.8Z" style="display: inline;"></path><rect class="st2" x="569.1" y="6.2" width="115.8" height="24" rx="6.3" ry="6.3" style="display: inline;"></rect></svg>